<mxfile host="app.diagrams.net" modified="2024-05-16T08:34:08.736Z" agent="Mozilla/5.0 (Windows NT 10.0; Win64; x64) AppleWebKit/537.36 (KHTML, like Gecko) Chrome/124.0.0.0 Safari/537.36 Edg/124.0.0.0" version="24.4.0" etag="vZPD15kR3Gtoq20NQwu9" type="github">
  <diagram name="第 1 页" id="Ts2ljl6WiXRt7yE5yXX4">
    <mxGraphModel>
      <root>
        <mxCell id="0" />
        <mxCell id="1" parent="0" />
      </root>
    </mxGraphModel>
  </diagram>
</mxfile>
